<?xml version="1.0" encoding="UTF-8" standalone="no"?>
<!-- Created with Inkscape (http://www.inkscape.org/) -->

<svg
   xmlns:dc="http://purl.org/dc/elements/1.1/"
   xmlns:cc="http://creativecommons.org/ns#"
   xmlns:rdf="http://www.w3.org/1999/02/22-rdf-syntax-ns#"
   xmlns:svg="http://www.w3.org/2000/svg"
   xmlns="http://www.w3.org/2000/svg"
   xmlns:xlink="http://www.w3.org/1999/xlink"
   xmlns:sodipodi="http://sodipodi.sourceforge.net/DTD/sodipodi-0.dtd"
   xmlns:inkscape="http://www.inkscape.org/namespaces/inkscape"
   width="250"
   height="250"
   viewBox="0 0 250.00001 250"
   id="svg2"
   version="1.1"
   inkscape:version="0.91 r13725"
   sodipodi:docname="logo.svg">
  <defs
     id="defs4">
    <linearGradient
       id="linearGradient4395"
       inkscape:collect="always">
      <stop
         id="stop4397"
         offset="0"
         style="stop-color:#ffc84b;stop-opacity:1" />
      <stop
         id="stop4399"
         offset="1"
         style="stop-color:#95ff8c;stop-opacity:0.5411765" />
    </linearGradient>
    <linearGradient
       inkscape:collect="always"
       id="linearGradient4379">
      <stop
         style="stop-color:#ffb406;stop-opacity:1"
         offset="0"
         id="stop4381" />
      <stop
         style="stop-color:#12ea00;stop-opacity:0.54191619"
         offset="1"
         id="stop4383" />
    </linearGradient>
    <inkscape:perspective
       id="perspective2912"
       inkscape:persp3d-origin="372.04725 : 350.78738 : 1"
       inkscape:vp_z="744.0945 : 526.18108 : 1"
       inkscape:vp_y="0 : 999.99998 : 0"
       inkscape:vp_x="0 : 526.18108 : 1"
       sodipodi:type="inkscape:persp3d" />
    <linearGradient
       inkscape:collect="always"
       xlink:href="#linearGradient4379"
       id="linearGradient4385"
       x1="200.9156"
       y1="313.39163"
       x2="543.87238"
       y2="384.10593"
       gradientUnits="userSpaceOnUse" />
    <linearGradient
       inkscape:collect="always"
       xlink:href="#linearGradient4395"
       id="linearGradient4393"
       x1="328.70758"
       y1="262.98773"
       x2="422.30875"
       y2="360.6442"
       gradientUnits="userSpaceOnUse" />
  </defs>
  <sodipodi:namedview
     id="base"
     pagecolor="#ffffff"
     bordercolor="#666666"
     borderopacity="1.0"
     inkscape:pageopacity="0.0"
     inkscape:pageshadow="2"
     inkscape:zoom="0.98994949"
     inkscape:cx="-186.76575"
     inkscape:cy="259.32198"
     inkscape:document-units="px"
     inkscape:current-layer="layer1"
     showgrid="false"
     fit-margin-top="0"
     fit-margin-left="0"
     fit-margin-right="0"
     fit-margin-bottom="0"
     units="px"
     inkscape:window-width="2560"
     inkscape:window-height="1377"
     inkscape:window-x="1699"
     inkscape:window-y="-8"
     inkscape:window-maximized="1" />
  <metadata
     id="metadata7">
    <rdf:RDF>
      <cc:Work
         rdf:about="">
        <dc:format>image/svg+xml</dc:format>
        <dc:type
           rdf:resource="http://purl.org/dc/dcmitype/StillImage" />
        <dc:title></dc:title>
      </cc:Work>
    </rdf:RDF>
  </metadata>
  <g
     inkscape:label="Layer 1"
     inkscape:groupmode="layer"
     id="layer1"
     transform="translate(-245.96542,-199.10593)">
    <path
       style="opacity:1;fill:url(#linearGradient4385);fill-opacity:1;fill-rule:evenodd;stroke:none;stroke-width:14.18607044;stroke-linejoin:round;stroke-miterlimit:4;stroke-dasharray:none;stroke-opacity:1"
       d="M 488.87239,324.10593 A 117.90697,117.90697 0 0 1 370.96542,442.01289 117.90697,117.90697 0 0 1 253.05846,324.10593 117.90697,117.90697 0 0 1 370.96542,206.19896 117.90697,117.90697 0 0 1 488.87239,324.10593 Z"
       id="path4377" />
    <g
       id="g4371"
       transform="matrix(1.1887921,0,0,1.1887921,-75.41906,-92.530515)">
      <path
         sodipodi:nodetypes="cccccccc"
         style="fill:#003c00;fill-opacity:1;fill-rule:nonzero;stroke:none;stroke-width:0.642259;stroke-linecap:butt;stroke-linejoin:miter;stroke-dasharray:none"
         inkscape:connector-curvature="0"
         d="m 325.79766,357.73008 c 4.76296,-8.93926 11.31704,-17.14078 18.92904,-23.86847 6.33129,-5.9653 16.7125,-12.85288 24.24898,-16.15078 -16.9123,6.16866 -35.77858,22.13099 -45.17791,38.89999 -0.0537,-0.48058 -0.0996,-0.95186 -0.12972,-1.41257 -2.09329,-40.1648 52.23705,-42.63958 52.23705,-42.63958 l -0.15189,0.17701 c -0.44643,2.21563 -13.88188,50.83837 -49.95555,44.9944 z"
         id="path286" />
      <path
         style="opacity:1;fill:url(#linearGradient4393);fill-opacity:1;fill-rule:evenodd;stroke:none;stroke-width:15;stroke-linejoin:round;stroke-miterlimit:4;stroke-dasharray:none;stroke-opacity:1"
         d="m 403.54506,310.74985 a 31.448477,31.448477 0 0 1 -31.44847,31.44847 31.448477,31.448477 0 0 1 -31.44848,-31.44847 31.448477,31.448477 0 0 1 31.44848,-31.44848 31.448477,31.448477 0 0 1 31.44847,31.44848 z"
         id="circle4271"
         inkscape:connector-curvature="0" />
      <path
         id="path4277"
         d="m 389.54533,298.31978 c 0,0 -25.24213,1.15487 -50.2361,11.55883 a 59.54304,59.54304 0 0 0 7.45258,13.54746 c 9.82451,-6.51322 19.91417,-11.79549 29.66307,-15.35135 -8.56074,3.74611 -19.05312,9.94296 -28.67224,16.73695 a 59.54304,59.54304 0 0 0 22.3839,17.72952 c 12.97065,-20.82343 18.72665,-41.92855 19.12122,-43.88677 l 0.28757,-0.33464 z"
         mask="none"
         style="fill:#006000;fill-opacity:1;fill-rule:nonzero;stroke:none;stroke-width:0.642259;stroke-linecap:butt;stroke-linejoin:miter;stroke-dasharray:none"
         inkscape:connector-curvature="0" />
      <path
         inkscape:transform-center-y="14.567989"
         inkscape:transform-center-x="-1.2951161"
         inkscape:connector-curvature="0"
         id="circle4142"
         d="m 358.0917,280.01392 c -16.84436,8.188 -23.89421,28.57466 -15.70621,45.41903 7.54224,15.51586 25.43309,22.71039 41.37344,17.351 l 18.17722,37.39419 7.83815,-3.8101 -18.17722,-37.39419 c 14.06145,-9.22441 19.4551,-27.73748 11.91287,-43.25334 -8.18799,-16.84437 -28.57388,-23.89459 -45.41825,-15.70659 z m 2.85757,5.87861 c 13.66734,-6.64366 30.03843,-0.98179 36.68208,12.68555 6.64365,13.66732 0.98292,30.03881 -12.68441,36.68247 -13.66733,6.64365 -30.03919,0.98215 -36.68284,-12.68517 -6.64366,-13.66734 -0.98216,-30.03919 12.68517,-36.68285 z"
         style="color:#000000;font-style:normal;font-variant:normal;font-weight:normal;font-stretch:normal;font-size:medium;line-height:normal;font-family:sans-serif;text-indent:0;text-align:start;text-decoration:none;text-decoration-line:none;text-decoration-style:solid;text-decoration-color:#000000;letter-spacing:normal;word-spacing:normal;text-transform:none;direction:ltr;block-progression:tb;writing-mode:lr-tb;baseline-shift:baseline;text-anchor:start;white-space:normal;clip-rule:nonzero;display:inline;overflow:visible;visibility:visible;opacity:1;isolation:auto;mix-blend-mode:normal;color-interpolation:sRGB;color-interpolation-filters:linearRGB;solid-color:#000000;solid-opacity:1;fill:#032d00;fill-opacity:1;fill-rule:evenodd;stroke:none;stroke-width:15;stroke-linecap:butt;stroke-linejoin:round;stroke-miterlimit:4;stroke-dasharray:none;stroke-dashoffset:0;stroke-opacity:1;color-rendering:auto;image-rendering:auto;shape-rendering:auto;text-rendering:auto;enable-background:accumulate" />
    </g>
    <text
       xml:space="preserve"
       style="font-style:normal;font-variant:normal;font-weight:300;font-stretch:normal;font-size:29.27750206px;line-height:125%;font-family:Hind;-inkscape-font-specification:'Hind, Light';text-align:start;letter-spacing:0px;word-spacing:0px;writing-mode:lr-tb;text-anchor:start;fill:#032d00;fill-opacity:1;stroke:none;stroke-width:1px;stroke-linecap:butt;stroke-linejoin:miter;stroke-opacity:1"
       x="307.86258"
       y="398.82697"
       id="text4149"
       sodipodi:linespacing="125%"><tspan
         sodipodi:role="line"
         id="tspan4151"
         x="307.86258"
         y="398.82697">ID GAMES</tspan></text>
  </g>
</svg>
