<svg xmlns="http://www.w3.org/2000/svg" xmlns:xlink="http://www.w3.org/1999/xlink" width="250" height="250" viewBox="0 0 250.00001 250"><defs><linearGradient id="b"><stop offset="0" stop-color="#ffc84b"/><stop offset="1" stop-color="#95ff8c" stop-opacity=".541"/></linearGradient><linearGradient id="a"><stop offset="0" stop-color="#ffb406"/><stop offset="1" stop-color="#12ea00" stop-opacity=".542"/></linearGradient><linearGradient xlink:href="#a" id="c" x1="200.916" y1="313.392" x2="543.872" y2="384.106" gradientUnits="userSpaceOnUse"/><linearGradient xlink:href="#b" id="d" x1="328.708" y1="262.988" x2="422.309" y2="360.644" gradientUnits="userSpaceOnUse"/></defs><g transform="translate(-245.965 -199.106)"><circle cx="370.965" cy="324.106" r="117.907" fill="url(#c)" fill-rule="evenodd"/><path d="M292.005 372.18c7.978-14.973 18.956-28.71 31.705-39.98 10.605-9.991 27.993-21.527 40.617-27.051-28.328 10.332-59.928 37.068-75.672 65.156a51.857 51.857 0 0 1-.217-2.366c-3.506-67.275 87.495-71.42 87.495-71.42l-.254.296c-.748 3.712-23.252 85.153-83.674 75.365z" fill="#003c00"/><path d="M403.545 310.75a31.448 31.448 0 0 1-31.448 31.448 31.448 31.448 0 0 1-31.449-31.448 31.448 31.448 0 0 1 31.449-31.449 31.448 31.448 0 0 1 31.448 31.449z" fill="url(#d)" fill-rule="evenodd" transform="translate(-253.696 -227.007) scale(1.67497)"/><path d="M398.78 272.67s-42.28 1.934-84.144 19.36a99.733 99.733 0 0 0 12.483 22.691c16.456-10.909 33.356-19.757 49.685-25.713-14.339 6.275-31.913 16.655-48.025 28.034a99.733 99.733 0 0 0 37.492 29.697c21.726-34.879 31.367-70.23 32.028-73.51l.481-.56z" fill="#006000"/><path d="M346.096 242.008c-28.213 13.714-40.022 47.861-26.307 76.075 12.633 25.989 42.6 38.04 69.3 29.062l30.445 62.634 13.13-6.381-30.447-62.634c23.552-15.451 32.587-46.46 19.954-72.448-13.715-28.214-47.86-40.023-76.075-26.308zm4.787 9.846c22.892-11.128 50.313-1.644 61.441 21.248s1.646 50.314-21.246 61.442-50.315 1.645-61.442-21.247c-11.128-22.893-1.646-50.315 21.247-61.443z" style="line-height:normal;text-indent:0;text-align:start;text-decoration-line:none;text-decoration-style:solid;text-decoration-color:#000;text-transform:none;block-progression:tb;isolation:auto;mix-blend-mode:normal" color="#000" font-weight="400" font-family="sans-serif" white-space="normal" overflow="visible" fill="#032d00" fill-rule="evenodd"/></g></svg>