<?xml version="1.0" encoding="UTF-8" standalone="no"?>
<!-- Created with Inkscape (http://www.inkscape.org/) -->

<svg
   xmlns:dc="http://purl.org/dc/elements/1.1/"
   xmlns:cc="http://creativecommons.org/ns#"
   xmlns:rdf="http://www.w3.org/1999/02/22-rdf-syntax-ns#"
   xmlns:svg="http://www.w3.org/2000/svg"
   xmlns="http://www.w3.org/2000/svg"
   xmlns:xlink="http://www.w3.org/1999/xlink"
   xmlns:sodipodi="http://sodipodi.sourceforge.net/DTD/sodipodi-0.dtd"
   xmlns:inkscape="http://www.inkscape.org/namespaces/inkscape"
   width="250"
   height="250"
   viewBox="0 0 250.00001 250"
   id="svg2"
   version="1.1"
   inkscape:version="0.91 r13725"
   sodipodi:docname="logo.svg">
  <defs
     id="defs4">
    <linearGradient
       id="linearGradient4395"
       inkscape:collect="always">
      <stop
         id="stop4397"
         offset="0"
         style="stop-color:#ffc84b;stop-opacity:1" />
      <stop
         id="stop4399"
         offset="1"
         style="stop-color:#95ff8c;stop-opacity:0.5411765" />
    </linearGradient>
    <linearGradient
       inkscape:collect="always"
       id="linearGradient4379">
      <stop
         style="stop-color:#ffb406;stop-opacity:1"
         offset="0"
         id="stop4381" />
      <stop
         style="stop-color:#12ea00;stop-opacity:0.54191619"
         offset="1"
         id="stop4383" />
    </linearGradient>
    <inkscape:perspective
       id="perspective2912"
       inkscape:persp3d-origin="372.04725 : 350.78738 : 1"
       inkscape:vp_z="744.0945 : 526.18108 : 1"
       inkscape:vp_y="0 : 999.99998 : 0"
       inkscape:vp_x="0 : 526.18108 : 1"
       sodipodi:type="inkscape:persp3d" />
    <linearGradient
       inkscape:collect="always"
       xlink:href="#linearGradient4379"
       id="linearGradient4385"
       x1="200.9156"
       y1="313.39163"
       x2="543.87238"
       y2="384.10593"
       gradientUnits="userSpaceOnUse" />
    <linearGradient
       inkscape:collect="always"
       xlink:href="#linearGradient4395"
       id="linearGradient4393"
       x1="328.70758"
       y1="262.98773"
       x2="422.30875"
       y2="360.6442"
       gradientUnits="userSpaceOnUse" />
  </defs>
  <sodipodi:namedview
     id="base"
     pagecolor="#ffffff"
     bordercolor="#666666"
     borderopacity="1.0"
     inkscape:pageopacity="0.0"
     inkscape:pageshadow="2"
     inkscape:zoom="0.98994949"
     inkscape:cx="-419.60591"
     inkscape:cy="259.32198"
     inkscape:document-units="px"
     inkscape:current-layer="layer1"
     showgrid="false"
     fit-margin-top="0"
     fit-margin-left="0"
     fit-margin-right="0"
     fit-margin-bottom="0"
     units="px"
     inkscape:window-width="2560"
     inkscape:window-height="1377"
     inkscape:window-x="1699"
     inkscape:window-y="-8"
     inkscape:window-maximized="1" />
  <metadata
     id="metadata7">
    <rdf:RDF>
      <cc:Work
         rdf:about="">
        <dc:format>image/svg+xml</dc:format>
        <dc:type
           rdf:resource="http://purl.org/dc/dcmitype/StillImage" />
        <dc:title />
      </cc:Work>
    </rdf:RDF>
  </metadata>
  <g
     inkscape:label="Layer 1"
     inkscape:groupmode="layer"
     id="layer1"
     transform="translate(-245.96542,-199.10593)">
    <path
       style="opacity:1;fill:url(#linearGradient4385);fill-opacity:1;fill-rule:evenodd;stroke:none;stroke-width:14.18607044;stroke-linejoin:round;stroke-miterlimit:4;stroke-dasharray:none;stroke-opacity:1"
       d="M 488.87239,324.10593 A 117.90697,117.90697 0 0 1 370.96542,442.01289 117.90697,117.90697 0 0 1 253.05846,324.10593 117.90697,117.90697 0 0 1 370.96542,206.19896 117.90697,117.90697 0 0 1 488.87239,324.10593 Z"
       id="path4377" />
    <g
       id="g4371"
       transform="matrix(1.1887921,0,0,1.1887921,-75.41906,-92.530515)">
      <path
         sodipodi:nodetypes="cccccccc"
         style="fill:#003c00;fill-opacity:1;fill-rule:nonzero;stroke:none;stroke-width:0.642259;stroke-linecap:butt;stroke-linejoin:miter;stroke-dasharray:none"
         inkscape:connector-curvature="0"
         d="m 325.79766,357.73008 c 4.76296,-8.93926 11.31704,-17.14078 18.92904,-23.86847 6.33129,-5.9653 16.7125,-12.85288 24.24898,-16.15078 -16.9123,6.16866 -35.77858,22.13099 -45.17791,38.89999 -0.0537,-0.48058 -0.0996,-0.95186 -0.12972,-1.41257 -2.09329,-40.1648 52.23705,-42.63958 52.23705,-42.63958 l -0.15189,0.17701 c -0.44643,2.21563 -13.88188,50.83837 -49.95555,44.9944 z"
         id="path286" />
      <path
         style="opacity:1;fill:url(#linearGradient4393);fill-opacity:1;fill-rule:evenodd;stroke:none;stroke-width:15;stroke-linejoin:round;stroke-miterlimit:4;stroke-dasharray:none;stroke-opacity:1"
         d="m 403.54506,310.74985 a 31.448477,31.448477 0 0 1 -31.44847,31.44847 31.448477,31.448477 0 0 1 -31.44848,-31.44847 31.448477,31.448477 0 0 1 31.44848,-31.44848 31.448477,31.448477 0 0 1 31.44847,31.44848 z"
         id="circle4271"
         inkscape:connector-curvature="0" />
      <path
         id="path4277"
         d="m 389.54533,298.31978 c 0,0 -25.24213,1.15487 -50.2361,11.55883 a 59.54304,59.54304 0 0 0 7.45258,13.54746 c 9.82451,-6.51322 19.91417,-11.79549 29.66307,-15.35135 -8.56074,3.74611 -19.05312,9.94296 -28.67224,16.73695 a 59.54304,59.54304 0 0 0 22.3839,17.72952 c 12.97065,-20.82343 18.72665,-41.92855 19.12122,-43.88677 l 0.28757,-0.33464 z"
         mask="none"
         style="fill:#006000;fill-opacity:1;fill-rule:nonzero;stroke:none;stroke-width:0.642259;stroke-linecap:butt;stroke-linejoin:miter;stroke-dasharray:none"
         inkscape:connector-curvature="0" />
      <path
         inkscape:transform-center-y="14.567989"
         inkscape:transform-center-x="-1.2951161"
         inkscape:connector-curvature="0"
         id="circle4142"
         d="m 358.0917,280.01392 c -16.84436,8.188 -23.89421,28.57466 -15.70621,45.41903 7.54224,15.51586 25.43309,22.71039 41.37344,17.351 l 18.17722,37.39419 7.83815,-3.8101 -18.17722,-37.39419 c 14.06145,-9.22441 19.4551,-27.73748 11.91287,-43.25334 -8.18799,-16.84437 -28.57388,-23.89459 -45.41825,-15.70659 z m 2.85757,5.87861 c 13.66734,-6.64366 30.03843,-0.98179 36.68208,12.68555 6.64365,13.66732 0.98292,30.03881 -12.68441,36.68247 -13.66733,6.64365 -30.03919,0.98215 -36.68284,-12.68517 -6.64366,-13.66734 -0.98216,-30.03919 12.68517,-36.68285 z"
         style="color:#000000;font-style:normal;font-variant:normal;font-weight:normal;font-stretch:normal;font-size:medium;line-height:normal;font-family:sans-serif;text-indent:0;text-align:start;text-decoration:none;text-decoration-line:none;text-decoration-style:solid;text-decoration-color:#000000;letter-spacing:normal;word-spacing:normal;text-transform:none;direction:ltr;block-progression:tb;writing-mode:lr-tb;baseline-shift:baseline;text-anchor:start;white-space:normal;clip-rule:nonzero;display:inline;overflow:visible;visibility:visible;opacity:1;isolation:auto;mix-blend-mode:normal;color-interpolation:sRGB;color-interpolation-filters:linearRGB;solid-color:#000000;solid-opacity:1;fill:#032d00;fill-opacity:1;fill-rule:evenodd;stroke:none;stroke-width:15;stroke-linecap:butt;stroke-linejoin:round;stroke-miterlimit:4;stroke-dasharray:none;stroke-dashoffset:0;stroke-opacity:1;color-rendering:auto;image-rendering:auto;shape-rendering:auto;text-rendering:auto;enable-background:accumulate" />
    </g>
    <g
       style="font-style:normal;font-variant:normal;font-weight:300;font-stretch:normal;font-size:29.27750206px;line-height:125%;font-family:Hind;-inkscape-font-specification:'Hind, Light';text-align:start;letter-spacing:0px;word-spacing:0px;writing-mode:lr-tb;text-anchor:start;fill:#032d00;fill-opacity:1;stroke:none;stroke-width:1px;stroke-linecap:butt;stroke-linejoin:miter;stroke-opacity:1"
       id="text4149">
      <path
         d="m 310.35117,398.82697 0,-19.73304 1.8152,0 0,19.73304 -1.8152,0 z"
         style=""
         id="path4963" />
      <path
         d="m 318.82472,397.15815 3.95246,0 q 2.02015,0 3.57185,-0.70266 1.55171,-0.70266 2.45931,-1.90304 0.90761,-1.20038 1.34677,-2.63498 0.46844,-1.43459 0.46844,-3.07413 0,-3.36692 -2.25437,-5.70912 -2.22509,-2.37147 -5.73839,-2.37147 l -3.80607,0 0,16.3954 z m -1.81521,-18.06422 5.62128,0 q 4.33307,0 7.11443,2.69353 2.78137,2.69353 2.78137,7.05588 0,2.66425 -1.02472,4.88934 -1.02471,2.19581 -3.30835,3.65969 -2.25437,1.4346 -5.41634,1.4346 l -5.76767,0 0,-19.73304 z"
         style=""
         id="path4965" />
      <path
         d="m 358.21714,387.96501 0,9.39808 q -2.31292,1.6981 -5.8555,1.6981 -4.50874,0 -7.26082,-2.69353 -2.72281,-2.72281 -2.72281,-7.43649 0,-4.45018 2.66425,-7.31938 2.69353,-2.86919 6.79238,-2.86919 3.48403,0 5.73839,1.37604 l 0,2.02015 q -2.25436,-1.58099 -5.50417,-1.58099 -3.45474,0 -5.65055,2.31293 -2.16654,2.28364 -2.16654,6.06044 0,3.89391 2.16654,6.119 2.16653,2.19581 5.97261,2.19581 2.25436,0 4.01101,-0.9076 l 0,-6.76311 -4.65512,0 0,-1.61026 6.47033,0 z"
         style=""
         id="path4967" />
      <path
         d="m 365.77531,391.74181 7.64143,0 -0.43917,-1.25893 -3.33763,-9.86652 q -0.38061,1.1711 -3.42547,9.89579 l -0.43916,1.22966 z m 10.04218,7.08516 -1.87376,-5.4749 -8.7247,0 -1.90303,5.4749 -1.9616,0 6.96805,-19.73304 2.63498,0 6.82165,19.73304 -1.96159,0 z"
         style=""
         id="path4969" />
      <path
         d="m 381.0792,398.82697 1.37605,-19.73304 2.48859,0 2.57642,7.23154 3.48402,10.04219 q 2.02015,-5.56273 3.68896,-10.04219 l 2.69353,-7.23154 2.48859,0 1.66882,19.73304 -1.81521,0 -0.67338,-7.8171 -0.79049,-9.54446 q -1.75665,4.88934 -3.48402,9.54446 l -2.72281,7.31938 -2.13726,0 -2.57642,-7.31938 -3.27908,-9.33952 q -0.2635,4.4209 -0.61483,9.33952 l -0.55627,7.8171 -1.81521,0 z"
         style=""
         id="path4971" />
      <path
         d="m 407.85806,397.15815 8.87108,0 0,1.66882 -10.68629,0 0,-19.73304 10.51063,0 0,1.66882 -8.69542,0 0,7.37793 7.6707,0 0,1.66881 -7.6707,0 0,7.34866 z"
         style=""
         id="path4973" />
      <path
         d="m 430.43787,379.79659 0,2.02015 q -0.70266,-0.46844 -1.84448,-0.7905 -1.14182,-0.32205 -2.22509,-0.32205 -1.96159,0 -3.13269,0.93688 -1.1711,0.9076 -1.1711,2.43003 0,0.7905 0.29277,1.40532 0.32206,0.61483 1.05399,1.14183 0.73194,0.49771 1.25894,0.79049 0.55627,0.2635 1.66881,0.73194 1.02472,0.43916 1.55171,0.70266 0.527,0.23422 1.34677,0.76121 0.81977,0.527 1.22965,1.05399 0.43916,0.49772 0.76122,1.31749 0.35133,0.79049 0.35133,1.75665 0,2.57642 -1.72738,3.95246 -1.72737,1.34677 -4.4209,1.34677 -3.04486,0 -5.18212,-1.28821 l 0,-2.02015 q 0.87833,0.67338 2.25437,1.11255 1.40532,0.43916 2.83992,0.43916 2.0787,0 3.22052,-0.9076 1.1711,-0.90761 1.1711,-2.6057 0,-1.28821 -0.87832,-2.07871 -0.87833,-0.81977 -2.54714,-1.5517 -0.23422,-0.11711 -1.02472,-0.43917 -0.79049,-0.35133 -1.11254,-0.49771 -0.32205,-0.14639 -0.99544,-0.49772 -0.67338,-0.35133 -0.99543,-0.61483 -0.29278,-0.2635 -0.76122,-0.70266 -0.46844,-0.43916 -0.67338,-0.87832 -0.20494,-0.43917 -0.38061,-1.02472 -0.17566,-0.61482 -0.17566,-1.28821 0,-2.48858 1.78592,-3.86463 1.78593,-1.40532 4.36235,-1.40532 2.45931,0 4.09885,0.87833 z"
         style=""
         id="path4975" />
    </g>
  </g>
</svg>
